<svg width="25" height="24" viewBox="0 0 25 24" fill="none" xmlns="http://www.w3.org/2000/svg">
<path d="M11.7266 4H4.72656C4.19613 4 3.68742 4.21071 3.31235 4.58579C2.93728 4.96086 2.72656 5.46957 2.72656 6V20C2.72656 20.5304 2.93728 21.0391 3.31235 21.4142C3.68742 21.7893 4.19613 22 4.72656 22H18.7266C19.257 22 19.7657 21.7893 20.1408 21.4142C20.5158 21.0391 20.7266 20.5304 20.7266 20V13" stroke="#9CA3B1" stroke-width="2" stroke-linecap="round" stroke-linejoin="round"/>
<path d="M19.2266 2.49998C19.6244 2.10216 20.164 1.87866 20.7266 1.87866C21.2892 1.87866 21.8287 2.10216 22.2266 2.49998C22.6244 2.89781 22.8479 3.43737 22.8479 3.99998C22.8479 4.56259 22.6244 5.10216 22.2266 5.49998L12.7266 15L8.72656 16L9.72656 12L19.2266 2.49998Z" stroke="#9CA3B1" stroke-width="2" stroke-linecap="round" stroke-linejoin="round"/>
</svg>
