<svg width="360" height="151" viewBox="0 0 360 151" fill="none" xmlns="http://www.w3.org/2000/svg">
<path fill-rule="evenodd" clip-rule="evenodd" d="M70.4248 75.7853C68.7536 72.0807 67.8291 68.0058 67.8291 63.7278C67.8291 46.6678 82.5308 32.8379 100.666 32.8379C109.265 32.8379 117.092 35.9472 122.946 41.0359C134.771 21.9346 156.774 9.0957 181.965 9.0957C213.503 9.0957 240.045 29.2193 247.872 56.5614C254.483 53.5872 261.887 51.9219 269.704 51.9219C294.018 51.9219 314.332 68.0318 319.241 89.5235C323.93 95.8769 326.702 103.732 326.702 112.234C326.702 133.378 309.561 150.519 288.417 150.519H82.1724C76.2433 150.519 70.629 149.171 65.6192 146.765C48.8954 144.063 36.1699 130.356 36.1699 113.853C36.1699 100.37 44.6649 88.7526 56.8949 83.4797C60.7855 80.0569 65.3763 77.4112 70.4248 75.7853Z" fill="white"/>
<path d="M262.246 56.6172C266.168 61.1059 267.241 61.1366 271.382 56.8853C267.241 61.1366 267.213 62.2996 271.134 66.7884C267.213 62.2996 266.14 62.2689 261.999 66.5202C266.14 62.2689 266.168 61.1059 262.246 56.6172Z" fill="#1C93CD" fill-opacity="0.15"/>
<path d="M103.379 41.6328C107.301 46.1216 108.374 46.1523 112.514 41.9009C108.374 46.1523 108.345 47.3152 112.267 51.804C108.345 47.3152 107.273 47.2845 103.132 51.5359C107.273 47.2845 107.301 46.1216 103.379 41.6328Z" fill="#1C93CD" fill-opacity="0.15"/>
<path d="M80.096 85.9766C84.0177 90.4653 85.0905 90.496 89.2313 86.2447C85.0905 90.496 85.0622 91.659 88.9839 96.1477C85.0622 91.659 83.9894 91.6283 79.8486 95.8796C83.9894 91.6283 84.0177 90.4653 80.096 85.9766Z" fill="#1C93CD" fill-opacity="0.15"/>
<path d="M35.2171 74.5938C39.1388 79.0825 40.2116 79.1132 44.3524 74.8619C40.2116 79.1132 40.1833 80.2762 44.105 84.7649C40.1833 80.2762 39.1105 80.2455 34.9697 84.4968C39.1105 80.2455 39.1388 79.0825 35.2171 74.5938Z" fill="#1C93CD" fill-opacity="0.15"/>
<path d="M308.002 108.121C311.924 112.61 312.997 112.641 317.138 108.389C312.997 112.641 312.968 113.804 316.89 118.292C312.968 113.804 311.896 113.773 307.755 118.024C311.896 113.773 311.924 112.61 308.002 108.121Z" fill="#1C93CD" fill-opacity="0.15"/>
<path d="M47.4854 118.564C50.2484 118.564 52.6497 116.56 53.0235 113.827C53.0896 113.337 53.1243 112.835 53.1243 112.328C53.1243 106.241 48.1844 101.308 42.0899 101.308C41.8395 101.308 41.5926 101.32 41.3456 101.335C40.8414 95.3339 35.8075 90.6191 29.6678 90.6191C23.1942 90.6191 17.9447 95.8601 17.9447 102.327C17.9447 102.614 17.9587 102.897 17.9795 103.18C16.1416 102.155 14.0011 101.606 11.7233 101.711C5.83567 101.98 0.996566 106.684 0.58099 112.555C0.577513 112.602 0.574035 112.649 0.572296 112.694C0.382765 115.888 2.96837 118.566 6.17126 118.566H47.4854V118.564Z" fill="#D3E5F0"/>
<path d="M352.193 94.1168C361.498 94.1168 362.014 80.1312 352.72 79.6793C352.466 79.6664 352.21 79.6608 351.954 79.6608C350.295 79.6608 348.698 79.9238 347.2 80.4053C345.956 72.8347 339.378 67.0586 331.446 67.0586C323.513 67.0586 316.648 73.0939 315.619 80.909C313.696 79.9886 311.542 79.4719 309.266 79.4719C307.996 79.4719 306.761 79.633 305.586 79.9349C297.449 82.0275 299.157 94.1186 307.559 94.1186H352.197L352.193 94.1168Z" fill="#D3E5F0"/>
<path d="M244.738 25.8482C253.462 25.8482 253.944 12.7372 245.232 12.3134C244.994 12.3013 244.754 12.2961 244.514 12.2961C242.96 12.2961 241.461 12.5427 240.056 12.9924C238.889 5.89509 232.723 0.480469 225.288 0.480469C217.853 0.480469 211.416 6.13821 210.451 13.4648C208.648 12.6017 206.627 12.1172 204.495 12.1172C203.304 12.1172 202.148 12.2683 201.044 12.5513C193.416 14.5137 195.017 25.8465 202.894 25.8465H244.738V25.8482Z" fill="#D3E5F0"/>
<circle cx="259.229" cy="97.7233" r="1.57483" fill="#61B3DC"/>
<circle cx="247.68" cy="102.972" r="2.12472" stroke="#61B3DC"/>
<circle cx="256.605" cy="106.648" r="1.04989" fill="#722ED1"/>
<circle cx="113.604" cy="53.4063" r="1.57483" transform="rotate(-49.5752 113.604 53.4063)" fill="#61B3DC"/>
<circle cx="113.634" cy="63.0867" r="2.12472" transform="rotate(-49.5752 113.634 63.0867)" stroke="#61B3DC"/>
<circle cx="120.501" cy="55.8347" r="1.04989" transform="rotate(-49.5752 120.501 55.8347)" fill="#722ED1"/>
<path d="M147.584 49.9746L152.323 66.0941C152.656 67.2265 152.009 68.4155 150.877 68.7552L134.007 73.7824" fill="#F3F3F6"/>
<path d="M147.584 49.9746L152.323 66.0941C152.656 67.2265 152.009 68.4155 150.877 68.7552L134.007 73.7824" stroke="#1C93CD" stroke-width="2.89952" stroke-linecap="round" stroke-linejoin="round"/>
<path d="M160.956 135.85L216.067 114.339C217.099 113.937 217.609 112.775 217.204 111.744L187.288 35.2531C186.885 34.2226 185.721 33.7129 184.69 34.1177L146.956 48.8448C146.475 49.0336 146.082 49.3993 145.865 49.8705L135.002 73.3168C134.773 73.8128 134.756 74.3778 134.954 74.8863L158.354 134.715C158.756 135.746 159.92 136.256 160.951 135.851L160.956 135.85Z" stroke="#1C93CD" stroke-width="2.89952" stroke-linecap="round" stroke-linejoin="round"/>
<path d="M162.991 108.27L159.869 109.488C159.626 109.583 159.506 109.857 159.601 110.1L164.728 123.206C164.823 123.448 165.097 123.568 165.34 123.473L168.462 122.255C168.705 122.16 168.825 121.886 168.73 121.643L163.603 108.537C163.508 108.294 163.234 108.175 162.991 108.27Z" fill="#1C93CD" fill-opacity="0.24"/>
<path d="M180.556 106.018L177.434 107.236C177.191 107.331 177.071 107.605 177.166 107.848L180.73 116.957C180.825 117.2 181.099 117.32 181.342 117.225L184.464 116.006C184.707 115.911 184.827 115.637 184.732 115.395L181.168 106.285C181.073 106.043 180.799 105.923 180.556 106.018Z" fill="#1C93CD" fill-opacity="0.24"/>
<path d="M186.997 98.8984L183.875 100.117C183.632 100.212 183.512 100.486 183.606 100.728L188.734 113.835C188.829 114.077 189.103 114.197 189.346 114.102L192.468 112.883C192.711 112.789 192.831 112.515 192.736 112.272L187.609 99.1661C187.514 98.9234 187.24 98.8036 186.997 98.8984Z" fill="#1C93CD" fill-opacity="0.24"/>
<path d="M169.427 101.15L166.305 102.369C166.062 102.464 165.942 102.738 166.037 102.98L172.727 120.081C172.822 120.324 173.096 120.444 173.339 120.349L176.461 119.13C176.704 119.035 176.824 118.761 176.729 118.519L170.039 101.418C169.944 101.175 169.67 101.056 169.427 101.15Z" fill="#1C93CD" fill-opacity="0.24"/>
<path d="M148.689 82.2332L185.701 67.7891" stroke="#1C93CD" stroke-opacity="0.5" stroke-width="2.17464" stroke-linecap="round" stroke-linejoin="round"/>
<path d="M151.035 88.2278L188.044 73.7815" stroke="#1C93CD" stroke-opacity="0.5" stroke-width="2.17464" stroke-linecap="round" stroke-linejoin="round"/>
<path d="M153.378 94.2238L190.389 79.7774" stroke="#1C93CD" stroke-opacity="0.5" stroke-width="2.17464" stroke-linecap="round" stroke-linejoin="round"/>
<path d="M249.913 121.544L253.052 118.19C253.65 117.549 253.568 116.535 252.871 116.002L230.741 98.9576L229.004 100.583L247.716 121.521C248.299 122.173 249.315 122.185 249.909 121.546L249.913 121.544Z" fill="#1C93CD"/>
<path d="M207.363 107.181C218.56 110.791 230.56 104.652 234.165 93.4692C237.771 82.2867 231.616 70.2949 220.419 66.6849C209.222 63.0749 197.223 69.2137 193.617 80.3962C190.012 91.5788 196.166 103.571 207.363 107.181Z" fill="#C9E5F3"/>
<path d="M207.363 107.181C218.56 110.791 230.56 104.652 234.165 93.4692C237.771 82.2867 231.616 70.2949 220.419 66.6849C209.222 63.0749 197.223 69.2137 193.617 80.3962C190.012 91.5788 196.166 103.571 207.363 107.181Z" stroke="#1C93CD" stroke-width="2.89952" stroke-linecap="round" stroke-linejoin="round"/>
<path d="M211.29 94.6733C211.294 94.6744 211.298 94.6725 211.299 94.6689C211.3 94.6653 211.298 94.6615 211.295 94.6603C211.291 94.6591 211.287 94.6611 211.286 94.6647C211.285 94.6683 211.287 94.6721 211.29 94.6733Z" stroke="#1C93CD" stroke-width="2.89952" stroke-linecap="round" stroke-linejoin="round"/>
<path d="M208.726 102.955C217.588 105.812 227.086 100.953 229.939 92.1028C232.793 83.2522 227.922 73.7611 219.06 70.9039C210.198 68.0467 200.7 72.9053 197.847 81.756C194.993 90.6066 199.864 100.098 208.726 102.955Z" fill="#F3F3F6"/>
<path d="M304.767 123.645H69.7266V148.262H304.767V123.645Z" fill="white"/>
<path d="M90.3458 142.326H77.2666C77.2235 142.326 77.1885 142.375 77.1885 142.434V143.201C77.1885 143.261 77.2235 143.309 77.2666 143.309H90.3458C90.3889 143.309 90.4239 143.261 90.4239 143.201V142.434C90.4239 142.375 90.3889 142.326 90.3458 142.326Z" fill="#1C93CD" fill-opacity="0.24"/>
<path d="M126.259 142.326H113.18C113.137 142.326 113.102 142.375 113.102 142.434V143.201C113.102 143.261 113.137 143.309 113.18 143.309H126.259C126.302 143.309 126.337 143.261 126.337 143.201V142.434C126.337 142.375 126.302 142.326 126.259 142.326Z" fill="#1C93CD" fill-opacity="0.24"/>
<path d="M158.946 130.664H145.867C145.824 130.664 145.789 130.712 145.789 130.772V131.539C145.789 131.599 145.824 131.647 145.867 131.647H158.946C158.99 131.647 159.024 131.599 159.024 131.539V130.772C159.024 130.712 158.99 130.664 158.946 130.664Z" fill="#1C93CD" fill-opacity="0.24"/>
<path d="M177.536 143.559H164.457C164.414 143.559 164.379 143.607 164.379 143.667V144.433C164.379 144.493 164.414 144.541 164.457 144.541H177.536C177.579 144.541 177.614 144.493 177.614 144.433V143.667C177.614 143.607 177.579 143.559 177.536 143.559Z" fill="#1C93CD" fill-opacity="0.24"/>
<path d="M223.402 143.559H210.323C210.28 143.559 210.245 143.607 210.245 143.667V144.433C210.245 144.493 210.28 144.541 210.323 144.541H223.402C223.446 144.541 223.481 144.493 223.481 144.433V143.667C223.481 143.607 223.446 143.559 223.402 143.559Z" fill="#1C93CD" fill-opacity="0.24"/>
<path d="M274.718 142.834H261.639C261.596 142.834 261.561 142.882 261.561 142.942V143.709C261.561 143.769 261.596 143.817 261.639 143.817H274.718C274.761 143.817 274.796 143.769 274.796 143.709V142.942C274.796 142.882 274.761 142.834 274.718 142.834Z" fill="#1C93CD" fill-opacity="0.24"/>
<path d="M111.704 128.771H98.625C98.5819 128.771 98.5469 128.82 98.5469 128.879V129.646C98.5469 129.706 98.5819 129.754 98.625 129.754H111.704C111.747 129.754 111.782 129.706 111.782 129.646V128.879C111.782 128.82 111.747 128.771 111.704 128.771Z" fill="#1C93CD" fill-opacity="0.24"/>
<path d="M203.026 128.295H189.947C189.904 128.295 189.869 128.343 189.869 128.403V129.17C189.869 129.229 189.904 129.278 189.947 129.278H203.026C203.07 129.278 203.105 129.229 203.105 129.17V128.403C203.105 128.343 203.07 128.295 203.026 128.295Z" fill="#1C93CD" fill-opacity="0.24"/>
<path d="M296.073 128.217H282.994C282.951 128.217 282.916 128.265 282.916 128.325V129.092C282.916 129.151 282.951 129.2 282.994 129.2H296.073C296.116 129.2 296.151 129.151 296.151 129.092V128.325C296.151 128.265 296.116 128.217 296.073 128.217Z" fill="#1C93CD" fill-opacity="0.24"/>
<path d="M250.275 123.645H237.196C237.153 123.645 237.118 123.693 237.118 123.753V124.519C237.118 124.579 237.153 124.627 237.196 124.627H250.275C250.319 124.627 250.354 124.579 250.354 124.519V123.753C250.354 123.693 250.319 123.645 250.275 123.645Z" fill="#1C93CD" fill-opacity="0.24"/>
</svg>
